<svg xmlns="http://www.w3.org/2000/svg" viewBox="0 0 75 61"><path d="M5 58.9S5 61 6.9 61h27s2-.2 2-2V47.9H5v11zM73.9 8H60.4c-.6-2.3-2.1-3.9-3.8-3.9h-7.5v12.8h7.5c1.7 0 3.1-1.6 3.8-3.9h13.5c.6 0 1-1.1 1-2.5s-.5-2.5-1-2.5zM2.1 0C.2 0 0 2 0 2v15.8c0 2.9 2.9 3 2.9 3h9c1.9 0 1.6 1.3 1.6 1.3s-2.5 13-2.7 15.2c-.3 2.3-1.9 3.7-1.9 3.7s-2.1 1.2-3 1.7-.9 2.2-.9 2.2h30.9v-.7c0-1.5-6.5-3.1-9.1-3.4-2.6-.3-2.1-2-2.1-2l1.1-7.8h3l1.1-7.9h-3l.3-2.7 8.6-.1c5.8-.6 10-4.1 10-4.1v-12C41.3.8 34 0 34 0H2.1zM36 4.9c0 .6-.5 1-1 1H5c-.5.1-1-.4-1-.9 0-.6.4-1 1-1h30c.5-.1 1 .4 1 .9z" fill="#fff"/></svg>