<svg version="1.1" id="Layer_1" xmlns="http://www.w3.org/2000/svg" x="0" y="0" viewBox="0 0 78 62" xml:space="preserve"><style>.st0{fill:#fff}</style><path class="st0" d="M16.1 29.7C7.2 29.7 0 37 0 45.9 0 54.8 7.2 62 16.1 62s16.1-7.2 16.1-16.1c.1-8.9-7.2-16.2-16.1-16.2zm0 23.5c-4 0-7.3-3.3-7.3-7.3s3.3-7.3 7.3-7.3 7.3 3.3 7.3 7.3-3.2 7.3-7.3 7.3zm44.8-7.3c-4.5 0-8.1 3.6-8.1 8.1s3.6 8.1 8.1 8.1S69 58.5 69 54c-.1-4.5-3.7-8.1-8.1-8.1zm0 13.1c-2.8 0-5.1-2.3-5.1-5.1s2.3-5.1 5.1-5.1 5.1 2.3 5.1 5.1c-.1 2.8-2.3 5.1-5.1 5.1z"/><path class="st0" d="M77.9 49.7s-2-15.1-2.5-18.4c-.5-4.1-3.6-4.7-3.6-4.7l-5.8-.7V14h-3v5.8h-4v5.3l-11.8-1.4S37.4 3.6 36.6 1.8 33.5 0 33.5 0 11.1 2.4 8.8 3 5.3 6.2 5.3 6.2C3 12.5 3 23.5 3 26.4c3.7-2.5 8.2-4 13.1-4 12.9 0 23.4 10.5 23.4 23.4 0 2.4-.4 4.8-1.1 7h10.2c.4-6.4 5.7-11.5 12.2-11.5S72.7 46.5 73 52.9h2c3.6 0 2.9-3.2 2.9-3.2zM23.1 19.8h-7V6.2h7v13.6zm10 0h-7V6.2h7v13.6zM53 36h-4v-7h4v7zm7 0h-4v-7h4v7zm7 0h-4v-7h4v7z"/></svg>