<?xml version="1.0" encoding="utf-8"?>
<!-- Generator: Adobe Illustrator 19.2.0, SVG Export Plug-In . SVG Version: 6.00 Build 0)  -->
<svg version="1.1" id="Layer_1" xmlns="http://www.w3.org/2000/svg" xmlns:xlink="http://www.w3.org/1999/xlink" x="0px" y="0px"
	 viewBox="0 0 78 62" style="enable-background:new 0 0 78 62;" xml:space="preserve">
<style type="text/css">
	.st0{fill:#FFFFFF;}
</style>
<g>
	<path class="st0" d="M16.1,29.7C7.2,29.7,0,37,0,45.9C0,54.8,7.2,62,16.1,62s16.1-7.2,16.1-16.1C32.3,37,25,29.7,16.1,29.7z
		 M16.1,53.2c-4,0-7.3-3.3-7.3-7.3c0-4,3.3-7.3,7.3-7.3s7.3,3.3,7.3,7.3C23.4,49.9,20.2,53.2,16.1,53.2z"/>
	<path class="st0" d="M60.9,45.9c-4.5,0-8.1,3.6-8.1,8.1c0,4.5,3.6,8.1,8.1,8.1s8.1-3.6,8.1-8.1C68.9,49.5,65.3,45.9,60.9,45.9z
		 M60.9,59c-2.8,0-5.1-2.3-5.1-5.1c0-2.8,2.3-5.1,5.1-5.1s5.1,2.3,5.1,5.1C65.9,56.7,63.7,59,60.9,59z"/>
	<path class="st0" d="M77.9,49.7c0,0-2-15.1-2.5-18.4c-0.5-4.1-3.6-4.7-3.6-4.7L66,25.9V14h-3v5.8h-4v5.3l-11.8-1.4
		c0,0-9.8-20.1-10.6-21.9S33.5,0,33.5,0S11.1,2.4,8.8,3S5.3,6.2,5.3,6.2C3,12.5,3,23.5,3,26.4c3.7-2.5,8.2-4,13.1-4
		c12.9,0,23.4,10.5,23.4,23.4c0,2.4-0.4,4.8-1.1,7h10.2c0.4-6.4,5.7-11.5,12.2-11.5S72.7,46.5,73,52.9h2
		C78.6,52.9,77.9,49.7,77.9,49.7z M23.1,19.8h-7V6.2h7V19.8z M33.1,19.8h-7V6.2h7V19.8z M53,36h-4v-7h4V36z M60,36h-4v-7h4V36z
		 M67,36h-4v-7h4V36z"/>
</g>
</svg>
