<svg version="1.1" id="Слой_1" xmlns="http://www.w3.org/2000/svg" x="0" y="0" viewBox="0 0 78 63" xml:space="preserve"><style>.st0{fill:#fff}</style><g id="Layer_2"><circle class="st0" cx="26" cy="55.5" r="7.5"/><circle class="st0" cx="60" cy="55.5" r="7.5"/><path class="st0" d="M64 0H11.1c-3.1 0-3 3.1-3 3.1V8H3.5C1.6 8 0 9.6 0 11.5S1.6 15 3.5 15l28.1 1.8h.2c-.8 3.2-8.9 3.8-8.9 3.8l-8.3.4H5.4C3.5 21 2 22.5 2 24.4s1.5 3.4 3.4 3.4l23.7 1.3c-.8 3.2-6.3 3.8-6.3 3.8l-14.7.7v15.6c0 3.2 2.6 3.8 2.6 3.8h2.1c1.2-6.3 6.7-11 13.3-11s12.1 4.7 13.3 11h7.4c1.2-6.3 6.7-11 13.3-11 6.6 0 12.1 4.7 13.3 11h1.7c2.9 0 3.1-4.1 3.1-4.1V33.7C78 14.8 64 0 64 0zM52 23.9v-15h10.1l5.7 15H52z"/></g></svg>