<svg version="1.1" id="Layer_2" xmlns="http://www.w3.org/2000/svg" x="0" y="0" viewBox="0 0 59 72" xml:space="preserve"><style>.st0{fill:#fff}</style><path class="st0" d="M58.3 20.5c-.6-.8-1.5-1.2-2.4-1.2H17.3L14.8 12H3.1c-1.7 0-3 1.3-3 3s1.3 3 3 3h7.4L24 58.3h25.2c1.7 0 3-1.3 3-3s-1.3-3-3-3H28.3l-1.7-5.1h23.1c1.3 0 2.5-.9 2.9-2.2l6.3-21.8c.2-.9 0-1.9-.6-2.7zm-7.7 9.7h-4.8v-4.9H52l-1.4 4.9zm-17.7 0v-4.9h6.8v4.9h-6.8zm6.8 6v4.9h-6.8v-4.9h6.8zM26.9 25.4v4.9h-6l-1.6-4.9h7.6zm-4 10.8h4v4.9h-2.4l-1.6-4.9zm22.8 4.9v-4.9h3.1l-1.4 4.9h-1.7z"/><circle class="st0" cx="27.4" cy="66.1" r="5.8"/><circle class="st0" cx="44.8" cy="66.1" r="5.8"/><path class="st0" d="M29.3 9.7l7.5 5.5c.9.7 2.2.4 2.8-.5.6-.9.4-2.2-.5-2.9l-2.4-1.7L46.3 5l4.6 12h4.3l-6-15.7C49 .8 48.6.3 48 .1c-.5-.2-1.1-.2-1.6.1L33.1 7.4l-3-2.2c-.9-.6-2.1-.5-2.7.4l-8.5 10.8c-.2.2-.3.4-.4.6h5.1l5.7-7.3z"/></svg>