<?xml version="1.0" encoding="utf-8"?>
<!-- Generator: Adobe Illustrator 19.2.0, SVG Export Plug-In . SVG Version: 6.00 Build 0)  -->
<svg version="1.1" id="Слой_1" xmlns="http://www.w3.org/2000/svg" xmlns:xlink="http://www.w3.org/1999/xlink" x="0px" y="0px"
	 viewBox="0 0 78 63" style="enable-background:new 0 0 78 63;" xml:space="preserve">
<style type="text/css">
	.st0{fill:#FFFFFF;}
</style>
<g id="Layer_1">
</g>
<g id="Layer_2">
	<circle class="st0" cx="26" cy="55.5" r="7.5"/>
	<circle class="st0" cx="60" cy="55.5" r="7.5"/>
	<path class="st0" d="M64,0c0,0-49.8,0-52.9,0s-3,3.1-3,3.1V8H3.5C1.6,8,0,9.6,0,11.5s1.6,3.5,3.5,3.5l28.1,1.8l0.2,0
		c-0.8,3.2-8.9,3.8-8.9,3.8l-8.3,0.4H5.4c-1.9,0-3.4,1.5-3.4,3.4s1.5,3.4,3.4,3.4l23.7,1.3c-0.8,3.2-6.3,3.8-6.3,3.8L8.1,33.6
		c0,7.6,0,14.4,0,15.6c0,3.2,2.6,3.8,2.6,3.8h2.1c1.2-6.3,6.7-11,13.3-11s12.1,4.7,13.3,11h7.4c1.2-6.3,6.7-11,13.3-11
		c6.6,0,12.1,4.7,13.3,11h1.7c2.9,0,3.1-4.1,3.1-4.1V33.7C78,14.8,64,0,64,0z M52,23.9v-15h10.1l5.7,15H52z"/>
</g>
</svg>
