<svg id="Слой_1" data-name="Слой 1" xmlns="http://www.w3.org/2000/svg" viewBox="0 0 25.99 15"><defs><style>.cls-1{fill:#fff;}</style></defs><title>vk-icon</title><path class="cls-1" d="M16.1,11.5c1-.3,2.2,2,3.5,2.9a2.16,2.16,0,0,0,1.7.5l3.5-.1s1.8-.1,1-1.6a11.88,11.88,0,0,0-2.6-3c-2.2-2-1.9-1.7.7-5.2,1.6-2.2,2.2-3.5,2-4S24.5,0.6,24.5.6H20.6a0.87,0.87,0,0,0-.9.5,22.1,22.1,0,0,1-1.4,3.1c-1.7,3-2.4,3.1-2.7,3-0.7-.4-0.5-1.7-0.5-2.7,0-2.9.4-4.1-.8-4.4-0.4,0-.7-0.1-1.8-0.1A9,9,0,0,0,9.3.3C8.8,0.6,8.5,1,8.7,1.1a1.93,1.93,0,0,1,1.2.6,4.08,4.08,0,0,1,.4,1.8s0.2,3.4-.5,3.8S8.4,7,6.9,4.3a23.88,23.88,0,0,1-1.4-3A1.73,1.73,0,0,0,5.2.9,1.19,1.19,0,0,0,4.6.7H0.9A1.12,1.12,0,0,0,.1,1a0.82,0.82,0,0,0,0,.7S3,8.5,6.3,12a8.92,8.92,0,0,0,6.5,3h1.6a1.74,1.74,0,0,0,.7-0.3,1.23,1.23,0,0,0,.2-0.7S15.2,11.8,16.1,11.5Z" transform="translate(-0.01 0)"/></svg>